<?xml version="1.0" standalone="no"?>
<!DOCTYPE svg PUBLIC "-//W3C//DTD SVG 1.1//EN" "http://www.w3.org/Graphics/SVG/1.1/DTD/svg11.dtd">
<svg class="icon" viewBox="0 0 1024 1024" version="1.1" xmlns="http://www.w3.org/2000/svg" p-id="952" xmlns:xlink="http://www.w3.org/1999/xlink" width="200" height="200">
  <defs>
    <style type="text/css"></style>
  </defs>
  <path d="M372.5 697.2S251.8 565.5 223.7 493.7h574.9s-48.1 116.1-152.5 203.5H372.5z" fill="#ECEBF2" p-id="953"></path>
  <path d="M372.5 697.2h273.6s-3.5 181.4-85 246.4H453.7s-85.4-88.8-81.2-246.4z" fill="#9998FF" p-id="954"></path>
  <path d="M512.1 94.5c37.6 0 74.7 7.4 110.3 21.9 34.6 14.1 65.9 34.3 93.1 59.9 27.3 25.7 48.8 55.4 63.8 88.3 15.6 34.1 23.6 70.1 23.6 107 0 32.1-3.5 61-10.7 88.3-6.8 25.8-17 50.3-31.1 74.9-28.2 49.2-69.7 95-123.3 148.7l-8.8 8.8v12.4c0 33.1-2.8 62.4-8.7 89.6-6.8 31.6-17.6 60.9-33 89.6-7.4 13.6-15 27.7-23.3 36.8-7.5 8.1-13.4 9.8-19.8 9.8h-65.7c-12.7 0-24.7-7.2-42.3-42.3-15.6-31.1-26.6-61.8-33.6-93.7-6.3-28.6-9.3-58.4-9.3-90.9v-12.4l-8.8-8.8c-44.8-44.8-90.3-93.6-120-146.4-28.3-50.3-41.5-102.5-41.5-164.4 0-37 7.9-73 23.4-107.1 14.9-32.9 36.2-62.6 63.3-88.3 27-25.6 58.1-45.7 92.5-59.8 35.2-14.5 72.3-21.9 109.9-21.9m0-30c-169.5 0-319.2 137.5-319.2 307.1 0 141.3 64.1 225.7 170.3 332 0 64.8 11.3 128.8 46.1 198.1 15.4 30.7 34.8 58.8 69.1 58.8H544c35.7 0 52.6-30.9 69.6-62.3 35.5-65.8 45.3-129.8 45.3-193.5 109.7-109.8 173.9-192.4 173.9-333.1 0-169.6-151.2-307.1-320.7-307.1z" fill="#060001" p-id="955"></path>
  <path d="M379.9 682.2h266v30h-266zM230.9 494.5h557.7v30H230.9zM380.392 787.046l257.594-66.367 7.485 29.052-257.594 66.367zM405.585 859.49l222.954-52.235 6.843 29.208-222.954 52.235z" fill="" p-id="956"></path>
  <path d="M737.9 346.3c-7.3 0-13.7-5.3-14.8-12.8-12.2-81.1-78.8-125.9-79.4-126.4-6.9-4.6-8.8-13.9-4.2-20.8 4.6-6.9 13.9-8.8 20.8-4.2 3.2 2.1 78.4 52.8 92.6 147 1.2 8.2-4.4 15.8-12.6 17.1-0.9 0.1-1.6 0.1-2.4 0.1z" fill="#9998FF" p-id="957"></path>
</svg>